<svg xmlns="http://www.w3.org/2000/svg" viewBox="0 0 24 24"><path d="M11.718 18.455c-5.112 0-10.146-1.613-11.505-5.174-.528-1.479-.044-3.163 1.26-4.403 4.369-4.063 13.496-4.22 18.74-1.653 2.613 1.28 3.953 3.097 3.772 5.116l-.001.011c-.399 3.546-5.015 5.378-9.202 5.911a24.532 24.532 0 0 1-3.064.192zm.202-11.961c-3.715 0-7.459.969-9.762 3.112-.791.751-1.474 2.024-1.008 3.329 1.431 3.745 8.026 5.032 13.506 4.335 4.784-.608 8.054-2.58 8.334-5.024.186-2.125-1.936-3.495-3.217-4.123-2.154-1.055-4.995-1.629-7.853-1.629zm11.567 5.802h.01-.01z"/><path d="M11.646 18.49a.5.5 0 0 1-.116-.987c.924-.22 2.1-2.238 1.906-3.271-.001.034-.038-.075-.277-.141-1.48-.398-5.82 1.558-7.276 2.702a.515.515 0 0 0-.015.107.5.5 0 0 1-1 0c0-.021.003-.516.246-.768 1.449-1.209 6.258-3.566 8.307-3.006.616.168.871.552.977.844.29 1.511-1.088 4.136-2.636 4.505a.425.425 0 0 1-.116.015zm2.799-.133a.5.5 0 0 1-.354-.853c2.595-2.593 4.717-6.709 6.04-9.706a.5.5 0 1 1 .914.405c-1.357 3.074-3.543 7.306-6.247 10.009a.497.497 0 0 1-.353.145zM3.514 16.568a.5.5 0 0 1-.487-.614c.954-4.09 3.062-7.865 5.64-10.098a.5.5 0 1 1 .653.756c-2.387 2.069-4.426 5.735-5.319 9.57a.5.5 0 0 1-.487.386zm7.227-4.83c-.625 0-1.195-.182-1.53-.756-.662-1.861 1.679-4.72 2.602-5.387a.5.5 0 1 1 .586.81c-.933.674-2.646 3.126-2.284 4.159.255.419 1.474.082 2.282-.144.183-.051.355-.099.511-.137 1.694-.572 4.32-2.669 5.441-3.565a.5.5 0 0 1 .625.782c-1.922 1.535-4.111 3.18-5.789 3.744-.187.047-.349.092-.521.14-.562.157-1.272.354-1.923.354z"/></svg>